<?xml version="1.0" encoding="UTF-8"?>
<svg width="100px" height="100px" viewBox="0 0 100 100" version="1.1" xmlns="http://www.w3.org/2000/svg" xmlns:xlink="http://www.w3.org/1999/xlink">
    <g id="samsimple-logo" stroke="none" fill="none" fill-rule="evenodd">
        <path d="M29.5992714,79.8251366 L29.5992714,78.4590164 C29.7632058,78.6047359 29.9453552,78.7140255 30.1639344,78.8415301 C30.3825137,78.9508197 30.6193078,79.0418944 30.856102,79.1147541 C31.0928962,79.1876138 31.3479053,79.2422587 31.5846995,79.2969035 C31.8214936,79.3333333 32.0582878,79.3515483 32.2586521,79.3515483 C32.9690346,79.3515483 33.5154827,79.2240437 33.8615665,78.9508197 C34.2076503,78.6775956 34.3897996,78.295082 34.3897996,77.8032787 C34.3897996,77.5300546 34.3351548,77.2932605 34.2076503,77.1111111 C34.0983607,76.9107468 33.9344262,76.7285974 33.715847,76.564663 C33.5154827,76.4007286 33.2604736,76.2367942 32.9690346,76.0910747 C32.6775956,75.9453552 32.3861566,75.7814208 32.0582878,75.6174863 C31.712204,75.435337 31.3843352,75.2714026 31.0928962,75.0892532 C30.8014572,74.9071038 30.5282332,74.7067395 30.3096539,74.4881603 C30.0910747,74.2695811 29.9089253,74.0327869 29.7814208,73.7413479 C29.6539162,73.4681239 29.5992714,73.140255 29.5992714,72.7759563 C29.5992714,72.3205829 29.6903461,71.9198543 29.8907104,71.5919854 C30.0910747,71.2641166 30.3460838,70.9726776 30.6739526,70.7723133 C31.0018215,70.5537341 31.3661202,70.3897996 31.7850638,70.28051 C32.2040073,70.1712204 32.6229508,70.1165756 33.0418944,70.1165756 C34.0255009,70.1165756 34.7358834,70.2258652 35.1912568,70.4626594 L35.1912568,71.7741348 C34.6083789,71.3734062 33.8433515,71.1730419 32.9326047,71.1730419 C32.6775956,71.1730419 32.4225865,71.1912568 32.1675774,71.2459016 C31.9125683,71.3005464 31.6939891,71.3916211 31.4936248,71.5009107 C31.2932605,71.6284153 31.129326,71.7741348 31.0018215,71.9562842 C30.8743169,72.1384335 30.8196721,72.3752277 30.8196721,72.6484517 C30.8196721,72.9034608 30.8743169,73.1220401 30.9653916,73.3041894 C31.0564663,73.4863388 31.2021858,73.6502732 31.3843352,73.8142077 C31.5664845,73.9599271 31.8032787,74.1056466 32.0582878,74.2513661 C32.3315118,74.3970856 32.6229508,74.56102 32.9690346,74.7249545 C33.3333333,74.9071038 33.6612022,75.0892532 33.989071,75.2714026 C34.3169399,75.4717668 34.5901639,75.6721311 34.8269581,75.9089253 C35.0637523,76.1457195 35.2641166,76.4007286 35.3916211,76.6921676 C35.5373406,76.9836066 35.6102004,77.3114754 35.6102004,77.6757741 C35.6102004,78.1675774 35.5191257,78.5865209 35.3187614,78.9143898 C35.1183971,79.2604736 34.863388,79.5336976 34.5355191,79.7340619 C34.2076503,79.9526412 33.8251366,80.0983607 33.4061931,80.1894353 C32.9872495,80.28051 32.5318761,80.3351548 32.0582878,80.3351548 C31.8943534,80.3351548 31.712204,80.3169399 31.4754098,80.298725 C31.2386157,80.28051 31.0018215,80.2440801 30.7650273,80.1894353 C30.5282332,80.1347905 30.291439,80.0801457 30.0910747,80.007286 C29.8907104,79.9344262 29.726776,79.9162113 29.5992714,79.8251366 Z" id="Shape" fill="#66676A" fill-rule="nonzero"></path>
        <path d="M38.0327869,71.3187614 C37.8324226,71.3187614 37.6502732,71.2459016 37.5045537,71.1183971 C37.3588342,70.9726776 37.2859745,70.8087432 37.2859745,70.5901639 C37.2859745,70.3715847 37.3588342,70.2076503 37.5045537,70.0619308 C37.6502732,69.9162113 37.8142077,69.8433515 38.0327869,69.8433515 C38.2331512,69.8433515 38.4153005,69.9162113 38.56102,70.0619308 C38.7067395,70.2076503 38.7795993,70.3715847 38.7795993,70.5901639 C38.7795993,70.7905282 38.7067395,70.9726776 38.56102,71.1183971 C38.4153005,71.2641166 38.2331512,71.3187614 38.0327869,71.3187614 Z M38.579235,80.2258652 L37.4499089,80.2258652 L37.4499089,73.1220401 L38.579235,73.1220401 L38.579235,80.2258652 Z" id="Shape" fill="#66676A" fill-rule="nonzero"></path>
        <path d="M50.9653916,80.2258652 L49.8360656,80.2258652 L49.8360656,76.1457195 C49.8360656,75.3624772 49.708561,74.7978142 49.4717668,74.4335155 C49.2349727,74.0874317 48.8160291,73.9052823 48.2513661,73.9052823 C47.7595628,73.9052823 47.3588342,74.1238616 47.0127505,74.579235 C46.6666667,75.0346084 46.5027322,75.5628415 46.5027322,76.1821494 L46.5027322,80.2258652 L45.3551913,80.2258652 L45.3551913,76.0182149 C45.3551913,74.6156648 44.8087432,73.9234973 43.7340619,73.9234973 C43.2422587,73.9234973 42.8233151,74.1238616 42.4954463,74.5428051 C42.1675774,74.9617486 42.003643,75.5081967 42.003643,76.1821494 L42.003643,80.2258652 L40.8743169,80.2258652 L40.8743169,73.1220401 L42.003643,73.1220401 L42.003643,74.2513661 L42.0400729,74.2513661 C42.5500911,73.3952641 43.2786885,72.9581056 44.2440801,72.9581056 C44.7358834,72.9581056 45.154827,73.0856102 45.5191257,73.3588342 C45.8834244,73.6320583 46.1202186,73.9781421 46.2659381,74.4153005 C46.7941712,73.431694 47.5774135,72.9398907 48.6156648,72.9398907 C50.1821494,72.9398907 50.9653916,73.9052823 50.9653916,75.8360656 L50.9653916,80.2258652 Z" id="Shape" fill="#66676A" fill-rule="nonzero"></path>
        <path d="M54.28051,79.2058288 L54.2440801,79.2058288 L54.2440801,83.5045537 L53.1147541,83.5045537 L53.1147541,73.140255 L54.2440801,73.140255 L54.2440801,74.3970856 L54.28051,74.3970856 C54.845173,73.4499089 55.6648452,72.9763206 56.7395264,72.9763206 C57.6502732,72.9763206 58.3606557,73.2859745 58.8888889,73.9234973 C59.3989071,74.56102 59.6539162,75.417122 59.6539162,76.4735883 C59.6539162,77.6575592 59.3624772,78.6047359 58.7795993,79.3333333 C58.1967213,80.0437158 57.4134791,80.4080146 56.4116576,80.4080146 C55.5009107,80.3897996 54.7905282,79.989071 54.28051,79.2058288 Z M54.2622951,76.3278689 L54.2622951,77.3114754 C54.2622951,77.8943534 54.4444444,78.4043716 54.8269581,78.8051002 C55.2094718,79.2058288 55.701275,79.424408 56.284153,79.424408 C56.9763206,79.424408 57.5045537,79.1693989 57.9052823,78.6411658 C58.3060109,78.1129326 58.4881603,77.3843352 58.4881603,76.4371585 C58.4881603,75.6539162 58.3060109,75.0346084 57.9417122,74.579235 C57.5774135,74.1238616 57.0856102,73.9052823 56.4663024,73.9052823 C55.8105647,73.9052823 55.2823315,74.1420765 54.863388,74.5974499 C54.4626594,75.0710383 54.2622951,75.6357013 54.2622951,76.3278689 Z" id="Shape" fill="#66676A" fill-rule="nonzero"></path>
        <polygon id="Shape" fill="#66676A" fill-rule="nonzero" points="62.6047359 80.2258652 61.4754098 80.2258652 61.4754098 69.715847 62.6047359 69.715847"></polygon>
        <path d="M70.6193078,76.9653916 L65.6102004,76.9653916 C65.6284153,77.7486339 65.8469945,78.3679417 66.2477231,78.8051002 C66.6484517,79.2422587 67.2131148,79.442623 67.9234973,79.442623 C68.7249545,79.442623 69.4535519,79.1876138 70.1275046,78.6593807 L70.1275046,79.7340619 C69.5081967,80.1894353 68.6703097,80.4080146 67.6502732,80.4080146 C66.6484517,80.4080146 65.8652095,80.0801457 65.2823315,79.442623 C64.7176685,78.8051002 64.4262295,77.8943534 64.4262295,76.7285974 C64.4262295,75.6174863 64.7358834,74.7249545 65.3734062,74.0327869 C65.992714,73.3406193 66.7759563,72.9945355 67.704918,72.9945355 C68.6338798,72.9945355 69.3442623,73.3041894 69.8542805,73.8870674 C70.3642987,74.4881603 70.6193078,75.3260474 70.6193078,76.3825137 L70.6193078,76.9653916 Z M69.4535519,76 C69.4535519,75.3442623 69.2896175,74.8342441 68.9799636,74.4699454 C68.6703097,74.1056466 68.2331512,73.9234973 67.6867031,73.9234973 C67.1584699,73.9234973 66.7030965,74.1238616 66.3205829,74.5063752 C65.9380692,74.8888889 65.71949,75.3989071 65.6284153,76.0182149 L69.4535519,76.0182149 L69.4535519,76 Z" id="Shape" fill="#66676A" fill-rule="nonzero"></path>
        <path d="M45.7923497,16.3096539 C34.1165756,17.7668488 24.2440801,25.9635701 20.6739526,37.1839709 C9.21675774,37.5118397 0,46.9289617 0,58.4772313 C0,70.1712204 9.47176685,79.6794171 21.147541,79.7704918 L23.0965392,79.7704918 L23.0965392,71.992714 L21.147541,71.992714 C13.7704918,71.9016393 7.79599271,65.8724954 7.79599271,58.4772313 C7.79599271,51.0273224 13.8615665,44.9617486 21.3114754,44.9617486 C21.8943534,44.9617486 22.5136612,44.9981785 23.132969,45.0892532 L26.7577413,45.5810565 L27.4681239,41.992714 C29.2531876,32.9763206 36.3570128,26.0910747 45.136612,24.3242259 L48.8888889,19.9526412 L45.7923497,16.3096539 Z" id="Shape" fill="#BBB9B9" fill-rule="nonzero"></path>
        <path d="M78.4335155,37.1657559 C74.5173042,24.870674 63.0601093,16.2185792 49.9089253,16.0728597 L53.2058288,19.9344262 L49.8360656,23.8688525 C60.4918033,23.996357 69.6539162,31.6102004 71.6939891,42.0837887 L72.4225865,45.8724954 L76.2112933,45.1803279 C77.0309654,45.0346084 77.8506375,44.9617486 78.6520947,44.9617486 C86.1020036,44.9617486 92.1675774,51.0273224 92.1675774,58.4772313 C92.1675774,65.9089253 86.1384335,71.9562842 78.7067395,71.992714 L76.6302368,71.992714 L76.6302368,79.7704918 L78.6885246,79.7704918 C90.4007286,79.7522769 99.9453552,70.2076503 99.9453552,58.4772313 C99.9453552,46.6557377 90.273224,37.0564663 78.4335155,37.1657559 Z" id="Shape" fill="#CF0A2C" fill-rule="nonzero"></path>
        <path d="M28.25,64.4628906 L28.25,61.3378906 C28.8164091,61.8131534 29.4316373,62.1695952 30.0957031,62.4072266 C30.7597689,62.644858 31.4303352,62.7636719 32.1074219,62.7636719 C32.5045593,62.7636719 32.8512355,62.7278649 33.1474609,62.65625 C33.4436864,62.5846351 33.6910797,62.4853522 33.8896484,62.3583984 C34.0882171,62.2314447 34.2363276,62.0817066 34.3339844,61.9091797 C34.4316411,61.7366528 34.4804688,61.5494802 34.4804688,61.3476562 C34.4804688,61.0742174 34.4023445,60.8300792 34.2460938,60.6152344 C34.089843,60.4003896 33.876629,60.2018238 33.6064453,60.0195312 C33.3362617,59.8372387 33.0156269,59.6614592 32.6445312,59.4921875 C32.2734356,59.3229158 31.873049,59.1503915 31.4433594,58.9746094 C30.3496039,58.5188779 29.5341824,57.9622429 28.9970703,57.3046875 C28.4599583,56.6471321 28.1914062,55.8528692 28.1914062,54.921875 C28.1914062,54.1927047 28.3378892,53.5660833 28.6308594,53.0419922 C28.9238296,52.517901 29.3225886,52.0865902 29.8271484,51.7480469 C30.3317083,51.4095035 30.9160123,51.1604826 31.5800781,51.0009766 C32.2441439,50.8414706 32.9472619,50.7617188 33.6894531,50.7617188 C34.4186234,50.7617188 35.0647758,50.8056636 35.6279297,50.8935547 C36.1910835,50.9814458 36.7102841,51.1165355 37.1855469,51.2988281 L37.1855469,54.21875 C36.9511707,54.0559888 36.6956394,53.912761 36.4189453,53.7890625 C36.1422512,53.665364 35.8574233,53.5628259 35.5644531,53.4814453 C35.2714829,53.4000647 34.9801447,53.3398439 34.6904297,53.3007812 C34.4007147,53.2617186 34.1256523,53.2421875 33.8652344,53.2421875 C33.5071597,53.2421875 33.1816421,53.2763668 32.8886719,53.3447266 C32.5957017,53.4130863 32.3483083,53.509114 32.1464844,53.6328125 C31.9446604,53.756511 31.788412,53.9046215 31.6777344,54.0771484 C31.5670567,54.2496753 31.5117188,54.4433583 31.5117188,54.6582031 C31.5117188,54.8925793 31.5735671,55.1025381 31.6972656,55.2880859 C31.8209642,55.4736337 31.9967437,55.6494132 32.2246094,55.8154297 C32.4524751,55.9814461 32.729165,56.1442049 33.0546875,56.3037109 C33.38021,56.4632169 33.7480448,56.6276033 34.1582031,56.796875 C34.7181018,57.0312512 35.2210264,57.2802721 35.6669922,57.5439453 C36.112958,57.8076185 36.4954411,58.1054671 36.8144531,58.4375 C37.1334651,58.7695329 37.3776033,59.1487609 37.546875,59.5751953 C37.7161467,60.0016297 37.8007812,60.498044 37.8007812,61.0644531 C37.8007812,61.845707 37.6526708,62.501625 37.3564453,63.0322266 C37.0602199,63.5628282 36.6582057,63.9925114 36.1503906,64.3212891 C35.6425756,64.6500667 35.0517612,64.886067 34.3779297,65.0292969 C33.7040982,65.1725268 32.9928423,65.2441406 32.2441406,65.2441406 C31.4759076,65.2441406 30.7451207,65.1790371 30.0517578,65.0488281 C29.358395,64.9186191 28.757815,64.7233086 28.25,64.4628906 Z M52.4199219,65 L48.9824219,65 L47.9863281,61.8847656 L43.0058594,61.8847656 L42.0195312,65 L38.6015625,65 L43.6992188,50.9960938 L47.4394531,50.9960938 L52.4199219,65 Z M47.2636719,59.4628906 L45.7597656,54.7558594 C45.649088,54.4042951 45.5709638,53.9843774 45.5253906,53.4960938 L45.4472656,53.4960938 C45.4147134,53.9062521 45.333334,54.313149 45.203125,54.7167969 L43.6796875,59.4628906 L47.2636719,59.4628906 Z M70.125,65 L67.0097656,65 L67.0097656,56.6210938 C67.0097656,55.7161413 67.0488277,54.7168023 67.1269531,53.6230469 L67.0488281,53.6230469 C66.8860669,54.4824262 66.739584,55.1009096 66.609375,55.4785156 L63.328125,65 L60.75,65 L57.4101562,55.5761719 C57.31901,55.3222644 57.1725271,54.6712292 56.9707031,53.6230469 L56.8828125,53.6230469 C56.9674483,55.0032621 57.0097656,56.2141875 57.0097656,57.2558594 L57.0097656,65 L54.1679688,65 L54.1679688,50.9960938 L58.7871094,50.9960938 L61.6484375,59.296875 C61.8763032,59.9609408 62.0423172,60.6282519 62.1464844,61.2988281 L62.2050781,61.2988281 C62.3808603,60.5240847 62.5664053,59.8502633 62.7617188,59.2773438 L65.6230469,50.9960938 L70.125,50.9960938 L70.125,65 Z" id="SAM" fill="#CF0A2C"></path>
    </g>
</svg>